<svg xmlns="http://www.w3.org/2000/svg" width="73" height="50" viewBox="0 0 73 50">
  <g fill="#F37C09">
    <path d="M9.62637363,0 L9.62637363,3.07930187 L42.6816761,3.07930187 L42.6816761,21.8776225 L66.0672808,21.8776225 L69.9329447,26.796995 L69.9329447,39.9359387 L63.9804869,39.9359387 C63.25195,35.848008 59.6863882,32.8708936 55.5225474,32.8738669 C51.3591246,32.8714295 47.7941796,35.8484187 47.0657155,39.9359387 L31.7658833,39.9359387 C31.0374192,35.8484187 27.4724742,32.8714295 23.3090514,32.8738669 C19.1456286,32.8714295 15.5806836,35.8484187 14.8522195,39.9359387 L9.62637363,39.9359387 L9.62637363,43.0152405 L14.828959,43.0152405 C15.5932468,47.0672442 19.1432064,50.0019558 23.2780374,49.9999984 C27.4132857,50.0024874 30.9638588,47.0676534 31.7282235,43.0152405 L47.0491009,43.0152405 C47.8134656,47.0676534 51.3640387,50.0024874 55.499287,49.9999984 C59.634118,50.0019558 63.1840776,47.0672442 63.9483654,43.0152405 L73,43.0152405 L73,25.7731381 L68.1928421,19.6145344 L60.7162717,3.93417262 L45.7753148,3.93417262 L45.7753148,0.0077313892 L9.62637363,0 Z M23.2625305,46.9273235 C21.0334529,46.927997 19.0234241,45.5897615 18.1696015,43.536557 C17.3170944,41.4846017 17.7903396,39.1225008 19.368068,37.5546708 C20.9471865,35.9848973 23.318669,35.5172691 25.378123,36.3695593 C27.4363374,37.2202262 28.7773882,39.2241091 28.7752551,41.4457685 C28.769144,44.4766589 26.3020863,46.9297675 23.2625305,46.9273235 Z M55.4915335,46.9273235 C53.2624559,46.927997 51.2524271,45.5897615 50.3986045,43.536557 C49.5458172,41.48482 50.0186187,39.1227506 51.5959634,37.5546708 C53.1750819,35.9848973 55.5465644,35.5172691 57.6060184,36.3695593 C59.6642327,37.2202262 61.0052836,39.2241091 61.0031504,41.4457685 C60.997045,44.4736405 58.5347085,46.925503 55.4981793,46.9273235 L55.4915335,46.9273235 Z M58.761287,7.01347449 L64.4047131,18.806052 L45.7742072,18.806052 L45.7742072,7.01347449 L58.761287,7.01347449 Z"/>
    <path d="M3.88883593,27.8909996 L16.335563,27.8909996 L16.335563,30.952381 L3.88883593,30.952381 L3.88883593,27.8909996 Z M0,18.7068555 L21.7814937,18.7068555 L21.7814937,21.7682369 L0,21.7682369 L0,18.7068555 Z M3.88883593,9.52380952 L25.6703297,9.52380952 L25.6703297,12.5851909 L3.88883593,12.5851909 L3.88883593,9.52380952 Z"/>
  </g>
</svg>
