<svg xmlns="http://www.w3.org/2000/svg" width="37" height="61" viewBox="0 0 37 61">
  <path fill="#01ACFF" stroke="#00AEFF" d="M151,92.8828396 C151.000525,93.7125548 151.329789,94.5078676 151.914957,95.0928504 C152.500124,95.6778332 153.292967,96.0042723 154.118103,95.9999578 L206.881897,95.9999578 C207.707033,96.0042723 208.499876,95.6778332 209.085043,95.0928504 C209.670211,94.5078676 209.999475,93.7125548 210,92.8828396 L210,64.1161467 C209.999207,63.2866072 209.669825,62.4915553 209.084686,61.906792 C208.499548,61.3220287 207.706858,60.9957284 206.881897,61.0000422 L154.118103,61.0000422 C153.293142,60.9957284 152.500452,61.3220287 151.915314,61.906792 C151.330175,62.4915553 151.000793,63.2866072 151,64.1161467 L151,92.8818259 L151,92.8828396 Z M152.43959,92.8828396 L152.43959,64.1161467 C152.43959,63.2048332 153.206766,62.4384782 154.118103,62.4384782 L157.71607,62.4384782 L157.71607,94.5615218 L154.118103,94.5615218 C153.206766,94.5615218 152.43959,93.7941531 152.43959,92.8828396 Z M154.358035,83.2932662 C154.358035,83.678471 154.693738,84.012991 155.07783,84.012991 C155.469854,84.0039539 155.785977,83.6874183 155.796617,83.2932662 L155.796617,73.7047065 C155.785977,73.3105543 155.469854,72.9940187 155.07783,72.9849816 C154.685413,72.9934865 154.368698,73.3101712 154.358035,73.7047065 L154.358035,83.2942799 L154.358035,83.2932662 Z M159.154652,94.5625355 L159.154652,62.4374645 L206.881897,62.4374645 C207.793234,62.4374645 208.56041,63.2048332 208.56041,64.1161467 L208.56041,92.8818259 C208.56041,93.7931394 207.793234,94.5605081 206.881897,94.5605081 L199.44704,94.5605081 L199.44704,66.5125264 C199.43585,66.1183874 199.119283,65.8022969 198.727245,65.7938152 C198.334828,65.8023201 198.018112,66.1190049 198.00745,66.5135401 L198.00745,94.5615218 L159.154652,94.5615218 L159.154652,94.5625355 Z M200.885622,78.5005069 C200.886415,79.3300464 201.215797,80.1250983 201.800935,80.7098616 C202.386074,81.2946249 203.178763,81.6209252 204.003725,81.6166114 C204.828687,81.6209252 205.621376,81.2946249 206.206515,80.7098616 C206.791653,80.1250983 207.121035,79.3300464 207.121828,78.5005069 C207.121035,77.6709673 206.791653,76.8759154 206.206515,76.2911521 C205.621376,75.7063888 204.828687,75.3800885 204.003725,75.3844023 C203.178763,75.3800885 202.386074,75.7063888 201.800935,76.2911521 C201.215797,76.8759154 200.886415,77.6709673 200.885622,78.5005069 Z M202.325211,78.5005069 C202.325211,77.5891933 203.092388,76.8228384 204.003725,76.8228384 C204.915062,76.8228384 205.682238,77.5891933 205.682238,78.5005069 C205.682238,79.4118204 204.91607,80.179189 204.003725,80.179189 C203.092388,80.179189 202.325211,79.4118204 202.325211,78.5005069 Z" transform="rotate(90 123.5 -26.5)"/>
</svg>
