<svg xmlns="http://www.w3.org/2000/svg" width="90" height="41" viewBox="0 0 90 41">
  <path fill="#510EED" d="M196.466696,99 C206.94266,99 221.653589,97.9874877 225.665661,92.6999232 L226,92.3624191 L225.888554,83.587312 L225.888554,82.2372956 C225.777107,81.3372846 225.665661,78.8622544 204.267946,75.3747119 L178.635267,58.2745033 L178.412374,58.162002 C178.300927,58.162002 175.068981,57.1494896 172.171374,60.1870267 C169.050874,62.5495555 160.469498,68.1746241 155.900195,67.9496213 C154.451391,66.7121062 149.324855,62.3245527 144.309766,61.4245418 C142.415176,61.0870376 140.297694,60.8620349 138.848891,62.3245527 C136.731408,64.3495774 136.508516,68.9621337 137.845873,81.1122819 L137.845873,82.3497969 C137.734426,82.6873011 137.511533,83.1373066 137.288641,83.8123148 C136.954301,84.487323 135.505498,87.8623642 136.174176,96.5249698 L136.285623,97.7624849 L185.767838,98.6624959 C186.882303,98.7749973 191.117267,99 196.466696,99 Z M140.409141,83.3623093 L140.520587,83.0248052 L140.520587,80.8872791 L157.794784,80.7747777 C157.90623,80.7747777 170.499677,81.2247832 178.412374,85.1623312 C178.969606,85.4998354 182.535892,87.5248601 188.21966,89.0998793 C187.439535,89.0998793 186.65941,88.9873779 185.990731,88.9873779 L139.071783,88.0873669 C139.18323,86.1748436 140.074801,84.1498189 140.409141,83.3623093 Z M140.74348,64.3495774 C141.189266,63.8995719 142.080837,63.8995719 143.86398,64.1245747 C148.767623,65.0245857 154.339945,70.1996488 154.451391,70.3121501 L154.78573,70.6496543 L155.231516,70.7621556 C161.695409,71.6621666 172.840052,63.3370651 174.065963,62.4370541 L174.288856,62.3245527 C175.737659,60.8620349 177.186463,60.8620349 177.632249,60.9745363 L182.758785,64.4620788 L179.749731,68.0621227 C179.303945,68.6246296 179.303945,69.5246405 179.861177,70.0871474 C180.08407,70.3121501 180.41841,70.4246515 180.752749,70.4246515 C181.198535,70.4246515 181.532874,70.1996488 181.867213,69.974646 L185.09916,66.037098 L188.888338,68.5121282 L185.767838,72.2246735 C185.322053,72.7871803 185.322053,73.6871913 185.990731,74.2496982 C186.213624,74.4747009 186.547963,74.5872023 186.882303,74.5872023 C187.328088,74.5872023 187.662428,74.3621995 187.996767,74.1371968 L191.34016,70.0871474 L195.240785,72.674679 L191.785946,76.2747229 C191.34016,76.8372297 191.34016,77.7372407 192.008838,78.2997476 C192.231731,78.5247503 192.566071,78.6372517 192.90041,78.6372517 C193.346196,78.6372517 193.680535,78.4122489 194.014874,78.1872462 L197.358267,74.1371968 L203.264928,78.0747448 L203.599267,78.0747448 C218.421643,80.549775 222.322268,82.3497969 223.102393,82.9123038 L223.102393,84.2623203 C215.524035,89.0998793 202.150464,88.0873669 202.039017,88.0873669 L201.816124,88.0873669 C188.665445,88.1998683 179.861177,82.9123038 179.749731,82.7998024 L179.638284,82.6873011 C171.168356,78.4122489 158.352016,77.9622434 157.794784,77.9622434 L140.186248,78.0747448 C139.629016,71.774668 139.294676,65.6995939 140.74348,64.3495774 Z M138.737444,90.8999012 L185.879285,91.7999122 C186.993749,91.9124136 191.228713,92.1374163 196.578142,92.1374163 C205.493857,92.1374163 217.307178,91.3499067 223.102393,87.8623642 L223.102393,91.3499067 C217.975857,96.7499726 194.572106,96.4124684 185.767838,95.8499616 L138.737444,94.9499506 L138.737444,90.8999012 Z" transform="translate(-136 -58)"/>
</svg>
